<svg width="96" height="96" viewBox="0 0 96 96" fill="none" xmlns="http://www.w3.org/2000/svg">
<g clip-path="url(#clip0)">
<path fill-rule="evenodd" clip-rule="evenodd" d="M0.543457 48.3917C0.543457 71.89 17.6099 91.4299 39.9305 95.3922V61.2555H28.1144V48.1278H39.9305V37.6232C39.9305 25.8071 47.544 19.2452 58.3125 19.2452C61.7234 19.2452 65.4021 19.7691 68.8131 20.2929V32.3729H62.775C56.9969 32.3729 55.6853 35.26 55.6853 38.9388V48.1278H68.2892L66.1899 61.2555H55.6853V95.3922C78.006 91.4299 95.0724 71.8939 95.0724 48.3917C95.0724 22.2505 73.8034 0.863281 47.8079 0.863281C21.8125 0.863281 0.543457 22.2505 0.543457 48.3917Z" fill="white"/>
</g>
<defs>
<clipPath id="clip0">
<rect width="94.529" height="94.529" fill="white" transform="translate(0.543457 0.863281)"/>
</clipPath>
</defs>
</svg>
