<svg width="96" height="95" viewBox="0 0 96 95" fill="none" xmlns="http://www.w3.org/2000/svg">
<path d="M93.9381 19.4967C90.6493 20.954 87.1163 21.9387 83.4021 22.3837C87.2345 20.0906 90.1016 16.4815 91.4686 12.2298C87.868 14.3684 83.9273 15.8738 79.8179 16.6805C77.0544 13.7299 73.3941 11.7742 69.4052 11.117C65.4163 10.4598 61.3221 11.1379 57.7581 13.0461C54.1941 14.9542 51.3598 17.9856 49.6953 21.6697C48.0307 25.3537 47.6289 29.4843 48.5524 33.42C41.2567 33.0537 34.1195 31.1574 27.6041 27.8542C21.0887 24.5511 15.3406 19.9148 10.733 14.2464C9.15747 16.9641 8.25157 20.1151 8.25157 23.4708C8.24981 26.4918 8.99375 29.4665 10.4174 32.131C11.841 34.7955 13.9003 37.0674 16.4126 38.7451C13.499 38.6524 10.6497 37.8652 8.1019 36.4489V36.6852C8.10161 40.9222 9.56723 45.0289 12.2501 48.3083C14.9329 51.5877 18.6678 53.838 22.8208 54.6772C20.118 55.4087 17.2844 55.5164 14.5338 54.9923C15.7056 58.638 17.988 61.8261 21.0617 64.1101C24.1353 66.3942 27.8463 67.6599 31.6751 67.7301C25.1755 72.8323 17.1487 75.6 8.8857 75.5878C7.422 75.5882 5.95954 75.5027 4.50586 75.3318C12.8932 80.7246 22.6568 83.5866 32.6282 83.5755C66.3829 83.5755 84.8358 55.6186 84.8358 31.3719C84.8358 30.5841 84.8161 29.7885 84.7807 29.0008C88.37 26.4051 91.4682 23.1908 93.9303 19.5085L93.9381 19.4967Z" fill="white"/>
</svg>
