<svg width="95" height="96" viewBox="0 0 95 96" fill="none" xmlns="http://www.w3.org/2000/svg">
<path fill-rule="evenodd" clip-rule="evenodd" d="M29.6737 5.06196C34.2938 4.84927 35.7669 4.802 47.5357 4.802C59.3046 4.802 60.7777 4.85321 65.3938 5.06196C70.01 5.27071 73.161 6.00725 75.9181 7.07464C78.8051 8.16566 81.4244 9.87112 83.5907 12.0768C85.7963 14.2391 87.4979 16.8544 88.5849 19.7455C89.6563 22.5026 90.3889 25.6535 90.6016 30.2618C90.8142 34.8898 90.8615 36.3629 90.8615 48.1278C90.8615 59.8966 90.8103 61.3697 90.6016 65.9898C90.3928 70.5981 89.6563 73.7491 88.5849 76.5062C87.4978 79.3975 85.7935 82.0172 83.5907 84.1827C81.4244 86.3884 78.8051 88.0899 75.9181 89.177C73.161 90.2483 70.01 90.9809 65.4017 91.1936C60.7777 91.4063 59.3046 91.4536 47.5357 91.4536C35.7669 91.4536 34.2938 91.4024 29.6737 91.1936C25.0654 90.9848 21.9144 90.2483 19.1574 89.177C16.266 88.0898 13.6464 86.3854 11.4808 84.1827C9.27663 82.0191 7.57092 79.4007 6.48259 76.5101C5.41521 73.753 4.68261 70.602 4.46992 65.9937C4.25723 61.3658 4.20996 59.8927 4.20996 48.1278C4.20996 36.3589 4.26116 34.8858 4.46992 30.2697C4.67867 25.6535 5.41521 22.5026 6.48259 19.7455C7.57252 16.8548 9.27954 14.2364 11.4848 12.0729C13.6473 9.86915 16.2643 8.16347 19.1534 7.07464C21.9105 6.00725 25.0615 5.27465 29.6698 5.06196H29.6737ZM65.0433 12.8606C60.4744 12.6518 59.1037 12.6085 47.5357 12.6085C35.9678 12.6085 34.5971 12.6518 30.0282 12.8606C25.802 13.0536 23.5096 13.7586 21.9814 14.3534C19.9608 15.1411 18.5153 16.0746 16.9989 17.591C15.5615 18.9894 14.4552 20.6919 13.7613 22.5734C13.1666 24.1017 12.4616 26.394 12.2686 30.6202C12.0598 35.1891 12.0165 36.5598 12.0165 48.1278C12.0165 59.6958 12.0598 61.0664 12.2686 65.6353C12.4616 69.8616 13.1666 72.1539 13.7613 73.6821C14.4545 75.5609 15.5613 77.2663 16.9989 78.6646C18.3972 80.1022 20.1026 81.209 21.9814 81.9022C23.5096 82.4969 25.802 83.202 30.0282 83.395C34.5971 83.6037 35.9638 83.647 47.5357 83.647C59.1077 83.647 60.4744 83.6037 65.0433 83.395C69.2695 83.202 71.5619 82.4969 73.0901 81.9022C75.1106 81.1144 76.5561 80.181 78.0725 78.6646C79.5102 77.2663 80.6169 75.5609 81.3102 73.6821C81.9049 72.1539 82.6099 69.8616 82.8029 65.6353C83.0117 61.0664 83.055 59.6958 83.055 48.1278C83.055 36.5598 83.0117 35.1891 82.8029 30.6202C82.6099 26.394 81.9049 24.1017 81.3102 22.5734C80.5224 20.5529 79.5889 19.1074 78.0725 17.591C76.674 16.1536 74.9716 15.0474 73.0901 14.3534C71.5619 13.7586 69.2695 13.0536 65.0433 12.8606ZM42.0019 61.4839C45.0924 62.7704 48.5337 62.9441 51.7381 61.9752C54.9424 61.0063 57.711 58.955 59.5709 56.1716C61.4308 53.3882 62.2667 50.0454 61.9358 46.7142C61.6049 43.383 60.1278 40.27 57.7567 37.9068C56.2452 36.3962 54.4175 35.2396 52.4053 34.5201C50.3931 33.8007 48.2464 33.5363 46.1198 33.746C43.9931 33.9558 41.9394 34.6345 40.1066 35.7332C38.2737 36.8319 36.7072 38.3233 35.5199 40.1001C34.3326 41.8769 33.5541 43.8948 33.2403 46.0086C32.9265 48.1224 33.0852 50.2795 33.7051 52.3245C34.325 54.3696 35.3907 56.2518 36.8253 57.8356C38.2599 59.4194 40.0279 60.6654 42.0019 61.4839ZM31.7888 32.3808C33.8567 30.3129 36.3117 28.6725 39.0135 27.5534C41.7154 26.4342 44.6113 25.8582 47.5357 25.8582C50.4602 25.8582 53.3561 26.4342 56.0579 27.5534C58.7598 28.6725 61.2148 30.3129 63.2827 32.3808C65.3506 34.4487 66.991 36.9037 68.1101 39.6056C69.2293 42.3075 69.8053 45.2033 69.8053 48.1278C69.8053 51.0523 69.2293 53.9481 68.1101 56.65C66.991 59.3518 65.3506 61.8068 63.2827 63.8747C59.1063 68.0511 53.442 70.3973 47.5357 70.3973C41.6295 70.3973 35.9651 68.0511 31.7888 63.8747C27.6124 59.6984 25.2662 54.034 25.2662 48.1278C25.2662 42.2215 27.6124 36.5572 31.7888 32.3808ZM74.7443 29.1747C75.2568 28.6913 75.667 28.11 75.9508 27.4652C76.2345 26.8204 76.386 26.1252 76.3963 25.4209C76.4066 24.7165 76.2754 24.0172 76.0106 23.3644C75.7457 22.7116 75.3526 22.1186 74.8545 21.6204C74.3563 21.1223 73.7633 20.7292 73.1105 20.4643C72.4577 20.1995 71.7584 20.0683 71.054 20.0786C70.3496 20.0889 69.6545 20.2404 69.0097 20.5241C68.3649 20.8079 67.7836 21.2181 67.3002 21.7306C66.36 22.7272 65.8453 24.0509 65.8653 25.4209C65.8853 26.7908 66.4384 28.099 67.4071 29.0678C68.3759 30.0365 69.6841 30.5896 71.054 30.6096C72.4239 30.6296 73.7477 30.1148 74.7443 29.1747Z" fill="white"/>
</svg>
