<svg width="114" height="114" viewBox="0 0 114 114" fill="none" xmlns="http://www.w3.org/2000/svg">
<path d="M99.7607 21.3586H14.3256C12.4374 21.3586 10.6265 22.1087 9.29133 23.4439C7.95615 24.7791 7.20605 26.59 7.20605 28.4782V85.4349C7.20605 87.3232 7.95615 89.134 9.29133 90.4692C10.6265 91.8044 12.4374 92.5545 14.3256 92.5545H99.7607C101.649 92.5545 103.46 91.8044 104.795 90.4692C106.13 89.134 106.88 87.3232 106.88 85.4349V28.4782C106.88 26.59 106.13 24.7791 104.795 23.4439C103.46 22.1087 101.649 21.3586 99.7607 21.3586ZM91.9291 28.4782L57.0432 52.6136L22.1572 28.4782H91.9291ZM14.3256 85.4349V31.7176L55.0141 59.8756C55.61 60.289 56.3179 60.5105 57.0432 60.5105C57.7684 60.5105 58.4763 60.289 59.0722 59.8756L99.7607 31.7176V85.4349H14.3256Z" fill="white"/>
</svg>
