<svg width="95" height="95" viewBox="0 0 95 95" fill="none" xmlns="http://www.w3.org/2000/svg">
<path d="M80.7208 13.794C76.3674 9.42004 71.183 5.95233 65.4698 3.59296C59.7567 1.23359 53.6289 0.0297385 47.4437 0.051561C21.5259 0.051561 0.403574 21.0729 0.379835 46.8799C0.379835 55.1454 2.55201 63.1865 6.65304 70.3059L0 94.5826L24.9504 88.0718C31.8527 91.8112 39.5855 93.7712 47.4437 93.7732H47.4675C73.3912 93.7732 94.5076 72.7519 94.5313 46.9212C94.5373 40.7652 93.3195 34.6688 90.9482 28.9833C88.577 23.2978 85.0991 18.1355 80.7149 13.794H80.7208ZM47.4437 85.8444C40.4346 85.8468 33.5542 83.9691 27.5261 80.4089L26.1018 79.5581L11.3001 83.4221L15.2527 69.0474L14.3269 67.5645C10.4087 61.3628 8.33646 54.1826 8.35043 46.8563C8.35043 25.4332 25.9 7.95672 47.4675 7.95672C52.6056 7.94755 57.6947 8.95092 62.4414 10.909C67.1881 12.8671 71.4985 15.7411 75.1242 19.3654C78.7625 22.9756 81.6467 27.2672 83.6106 31.9926C85.5745 36.718 86.5792 41.7837 86.5667 46.8976C86.5429 68.3975 68.9934 85.8444 47.4437 85.8444ZM68.8984 56.6934C67.7293 56.1085 61.9546 53.2785 60.8685 52.8767C59.7883 52.4927 58.999 52.2918 58.2275 53.4616C57.4381 54.6255 55.1828 57.2783 54.5063 58.0405C53.8297 58.8263 53.1294 58.9149 51.9543 58.3359C50.7851 57.7451 46.9927 56.5162 42.5059 52.5163C39.0043 49.4145 36.66 45.5742 35.9597 44.4103C35.2831 43.2404 35.8944 42.6142 36.4819 42.0293C36.9983 41.5093 37.6511 40.6586 38.2387 39.985C38.8322 39.3115 39.028 38.8152 39.4138 38.0353C39.7995 37.2436 39.6156 36.5701 39.3247 35.9852C39.028 35.4003 36.6837 29.628 35.6926 27.3001C34.743 25.0019 33.7756 25.3209 33.0515 25.2914C32.375 25.25 31.5856 25.25 30.7963 25.25C30.2002 25.2647 29.6136 25.402 29.0733 25.6531C28.5331 25.9042 28.0508 26.2638 27.6567 26.7093C26.5766 27.8791 23.5557 30.7092 23.5557 36.4815C23.5557 42.2538 27.7695 47.8016 28.363 48.5874C28.9446 49.3731 36.6362 61.1836 48.4408 66.2647C51.2302 67.4758 53.4261 68.1907 55.1413 68.7343C57.9604 69.6323 60.5065 69.4964 62.5362 69.2069C64.7915 68.8643 69.486 66.371 70.4771 63.6355C71.4504 60.8941 71.4504 58.5545 71.1537 58.0641C70.8629 57.5678 70.0735 57.2783 68.8984 56.6934Z" fill="white"/>
</svg>
